<svg xmlns="http://www.w3.org/2000/svg" viewBox="0 0 128 144" role="img" aria-label="Naven shield mark"><defs><linearGradient id="shield" x1="0" y1="0" x2="1" y2="1"><stop stop-color="#7c3aed"/><stop offset="1" stop-color="#3b0764"/></linearGradient><linearGradient id="sweep" x1=".15" y1=".15" x2=".9" y2=".9"><stop stop-color="#c4b5fd"/><stop offset="1" stop-color="#7c3aed"/></linearGradient></defs><path fill="url(#shield)" stroke="#a78bfa" stroke-width="4" d="M64 5 118 30c-2 48-20 80-54 108C30 110 12 78 10 30z"/><path fill="url(#sweep)" d="M20 49c9 38 25 61 44 76 20-15 36-38 44-76-10 20-29 32-44 32S30 69 20 49z" opacity=".92"/><g fill="none" stroke="#08030f" stroke-width="7" stroke-linecap="round"><path d="M64 113V67"/><path d="M48 108V72c0-22 32-22 32 0v36"/><path d="M34 99V66c0-42 60-42 60 0v33"/><path d="M23 88V62c0-58 82-58 82 0v26"/><path d="M64 92V62"/></g><circle cx="64" cy="62" r="5" fill="#a78bfa"/></svg>